####
#
# OBJ File Generated by Meshlab
#
####
# Object PST.obj
#
# Vertices: 288
# Faces: 288
#
####
v -299.500000 -0.000000 -1800.000000
v -299.500000 -0.000000 1800.000000
v -298.359985 -26.103100 -1800.000000
v -298.359985 -26.103100 1800.000000
v -294.950012 -52.007599 -1800.000000
v -294.950012 -52.007599 1800.000000
v -289.295013 -77.516296 -1800.000000
v -289.295013 -77.516296 1800.000000
v -281.437988 -102.434998 -1800.000000
v -281.437988 -102.434998 1800.000000
v -271.438995 -126.573997 -1800.000000
v -271.438995 -126.573997 1800.000000
v -259.375000 -149.750000 -1800.000000
v -259.375000 -149.750000 1800.000000
v -245.335999 -171.785995 -1800.000000
v -245.335999 -171.785995 1800.000000
v -229.429993 -192.514999 -1800.000000
v -229.429993 -192.514999 1800.000000
v -211.778000 -211.778000 -1800.000000
v -211.778000 -211.778000 1800.000000
v -192.514999 -229.429993 -1800.000000
v -192.514999 -229.429993 1800.000000
v -171.785995 -245.335999 -1800.000000
v -171.785995 -245.335999 1800.000000
v -149.750000 -259.375000 -1800.000000
v -149.750000 -259.375000 1800.000000
v -126.573997 -271.438995 -1800.000000
v -126.573997 -271.438995 1800.000000
v -102.434998 -281.437988 -1800.000000
v -102.434998 -281.437988 1800.000000
v -77.516296 -289.295013 -1800.000000
v -77.516296 -289.295013 1800.000000
v -52.007599 -294.950012 -1800.000000
v -52.007599 -294.950012 1800.000000
v -26.103100 -298.359985 -1800.000000
v -26.103100 -298.359985 1800.000000
v 0.000000 -299.500000 -1800.000000
v 0.000000 -299.500000 1800.000000
v 26.103100 -298.359985 -1800.000000
v 26.103100 -298.359985 1800.000000
v 52.007599 -294.950012 -1800.000000
v 52.007599 -294.950012 1800.000000
v 77.516296 -289.295013 -1800.000000
v 77.516296 -289.295013 1800.000000
v 102.434998 -281.437988 -1800.000000
v 102.434998 -281.437988 1800.000000
v 126.573997 -271.438995 -1800.000000
v 126.573997 -271.438995 1800.000000
v 149.750000 -259.375000 -1800.000000
v 149.750000 -259.375000 1800.000000
v 171.785995 -245.335999 -1800.000000
v 171.785995 -245.335999 1800.000000
v 192.514999 -229.429993 -1800.000000
v 192.514999 -229.429993 1800.000000
v 211.778000 -211.778000 -1800.000000
v 211.778000 -211.778000 1800.000000
v 229.429993 -192.514999 -1800.000000
v 229.429993 -192.514999 1800.000000
v 245.335999 -171.785995 -1800.000000
v 245.335999 -171.785995 1800.000000
v 259.375000 -149.750000 -1800.000000
v 259.375000 -149.750000 1800.000000
v 271.438995 -126.573997 -1800.000000
v 271.438995 -126.573997 1800.000000
v 281.437988 -102.434998 -1800.000000
v 281.437988 -102.434998 1800.000000
v 289.295013 -77.516296 -1800.000000
v 289.295013 -77.516296 1800.000000
v 294.950012 -52.007599 -1800.000000
v 294.950012 -52.007599 1800.000000
v 298.359985 -26.103100 -1800.000000
v 298.359985 -26.103100 1800.000000
v 299.500000 0.000000 -1800.000000
v 299.500000 0.000000 1800.000000
v 298.359985 26.103100 -1800.000000
v 298.359985 26.103100 1800.000000
v 294.950012 52.007599 -1800.000000
v 294.950012 52.007599 1800.000000
v 289.295013 77.516296 -1800.000000
v 289.295013 77.516296 1800.000000
v 281.437988 102.434998 -1800.000000
v 281.437988 102.434998 1800.000000
v 271.438995 126.573997 -1800.000000
v 271.438995 126.573997 1800.000000
v 259.375000 149.750000 -1800.000000
v 259.375000 149.750000 1800.000000
v 245.335999 171.785995 -1800.000000
v 245.335999 171.785995 1800.000000
v 229.429993 192.514999 -1800.000000
v 229.429993 192.514999 1800.000000
v 211.778000 211.778000 -1800.000000
v 211.778000 211.778000 1800.000000
v 192.514999 229.429993 -1800.000000
v 192.514999 229.429993 1800.000000
v 171.785995 245.335999 -1800.000000
v 171.785995 245.335999 1800.000000
v 149.750000 259.375000 -1800.000000
v 149.750000 259.375000 1800.000000
v 126.573997 271.438995 -1800.000000
v 126.573997 271.438995 1800.000000
v 102.434998 281.437988 -1800.000000
v 102.434998 281.437988 1800.000000
v 77.516296 289.295013 -1800.000000
v 77.516296 289.295013 1800.000000
v 52.007599 294.950012 -1800.000000
v 52.007599 294.950012 1800.000000
v 26.103100 298.359985 -1800.000000
v 26.103100 298.359985 1800.000000
v 0.000000 299.500000 -1800.000000
v 0.000000 299.500000 1800.000000
v -26.103100 298.359985 -1800.000000
v -26.103100 298.359985 1800.000000
v -52.007599 294.950012 -1800.000000
v -52.007599 294.950012 1800.000000
v -77.516296 289.295013 -1800.000000
v -77.516296 289.295013 1800.000000
v -102.434998 281.437988 -1800.000000
v -102.434998 281.437988 1800.000000
v -126.573997 271.438995 -1800.000000
v -126.573997 271.438995 1800.000000
v -149.750000 259.375000 -1800.000000
v -149.750000 259.375000 1800.000000
v -171.785995 245.335999 -1800.000000
v -171.785995 245.335999 1800.000000
v -192.514999 229.429993 -1800.000000
v -192.514999 229.429993 1800.000000
v -211.778000 211.778000 -1800.000000
v -211.778000 211.778000 1800.000000
v -229.429993 192.514999 -1800.000000
v -229.429993 192.514999 1800.000000
v -245.335999 171.785995 -1800.000000
v -245.335999 171.785995 1800.000000
v -259.375000 149.750000 -1800.000000
v -259.375000 149.750000 1800.000000
v -271.438995 126.573997 -1800.000000
v -271.438995 126.573997 1800.000000
v -281.437988 102.434998 -1800.000000
v -281.437988 102.434998 1800.000000
v -289.295013 77.516296 -1800.000000
v -289.295013 77.516296 1800.000000
v -294.950012 52.007599 -1800.000000
v -294.950012 52.007599 1800.000000
v -298.359985 26.103100 -1800.000000
v -298.359985 26.103100 1800.000000
v -300.500000 -0.000000 -1800.000000
v -300.500000 -0.000000 1800.000000
v -299.356995 -26.190300 -1800.000000
v -299.356995 -26.190300 1800.000000
v -295.934998 -52.181301 -1800.000000
v -295.934998 -52.181301 1800.000000
v -290.260986 -77.775101 -1800.000000
v -290.260986 -77.775101 1800.000000
v -282.377991 -102.777000 -1800.000000
v -282.377991 -102.777000 1800.000000
v -272.345001 -126.997002 -1800.000000
v -272.345001 -126.997002 1800.000000
v -260.240997 -150.250000 -1800.000000
v -260.240997 -150.250000 1800.000000
v -246.154999 -172.360001 -1800.000000
v -246.154999 -172.360001 1800.000000
v -230.195999 -193.158005 -1800.000000
v -230.195999 -193.158005 1800.000000
v -212.485992 -212.485992 -1800.000000
v -212.485992 -212.485992 1800.000000
v -193.158005 -230.195999 -1800.000000
v -193.158005 -230.195999 1800.000000
v -172.360001 -246.154999 -1800.000000
v -172.360001 -246.154999 1800.000000
v -150.250000 -260.240997 -1800.000000
v -150.250000 -260.240997 1800.000000
v -126.997002 -272.345001 -1800.000000
v -126.997002 -272.345001 1800.000000
v -102.777000 -282.377991 -1800.000000
v -102.777000 -282.377991 1800.000000
v -77.775101 -290.260986 -1800.000000
v -77.775101 -290.260986 1800.000000
v -52.181301 -295.934998 -1800.000000
v -52.181301 -295.934998 1800.000000
v -26.190300 -299.356995 -1800.000000
v -26.190300 -299.356995 1800.000000
v 0.000000 -300.500000 -1800.000000
v 0.000000 -300.500000 1800.000000
v 26.190300 -299.356995 -1800.000000
v 26.190300 -299.356995 1800.000000
v 52.181301 -295.934998 -1800.000000
v 52.181301 -295.934998 1800.000000
v 77.775101 -290.260986 -1800.000000
v 77.775101 -290.260986 1800.000000
v 102.777000 -282.377991 -1800.000000
v 102.777000 -282.377991 1800.000000
v 126.997002 -272.345001 -1800.000000
v 126.997002 -272.345001 1800.000000
v 150.250000 -260.240997 -1800.000000
v 150.250000 -260.240997 1800.000000
v 172.360001 -246.154999 -1800.000000
v 172.360001 -246.154999 1800.000000
v 193.158005 -230.195999 -1800.000000
v 193.158005 -230.195999 1800.000000
v 212.485992 -212.485992 -1800.000000
v 212.485992 -212.485992 1800.000000
v 230.195999 -193.158005 -1800.000000
v 230.195999 -193.158005 1800.000000
v 246.154999 -172.360001 -1800.000000
v 246.154999 -172.360001 1800.000000
v 260.240997 -150.250000 -1800.000000
v 260.240997 -150.250000 1800.000000
v 272.345001 -126.997002 -1800.000000
v 272.345001 -126.997002 1800.000000
v 282.377991 -102.777000 -1800.000000
v 282.377991 -102.777000 1800.000000
v 290.260986 -77.775101 -1800.000000
v 290.260986 -77.775101 1800.000000
v 295.934998 -52.181301 -1800.000000
v 295.934998 -52.181301 1800.000000
v 299.356995 -26.190300 -1800.000000
v 299.356995 -26.190300 1800.000000
v 300.500000 0.000000 -1800.000000
v 300.500000 0.000000 1800.000000
v 299.356995 26.190300 -1800.000000
v 299.356995 26.190300 1800.000000
v 295.934998 52.181301 -1800.000000
v 295.934998 52.181301 1800.000000
v 290.260986 77.775101 -1800.000000
v 290.260986 77.775101 1800.000000
v 282.377991 102.777000 -1800.000000
v 282.377991 102.777000 1800.000000
v 272.345001 126.997002 -1800.000000
v 272.345001 126.997002 1800.000000
v 260.240997 150.250000 -1800.000000
v 260.240997 150.250000 1800.000000
v 246.154999 172.360001 -1800.000000
v 246.154999 172.360001 1800.000000
v 230.195999 193.158005 -1800.000000
v 230.195999 193.158005 1800.000000
v 212.485992 212.485992 -1800.000000
v 212.485992 212.485992 1800.000000
v 193.158005 230.195999 -1800.000000
v 193.158005 230.195999 1800.000000
v 172.360001 246.154999 -1800.000000
v 172.360001 246.154999 1800.000000
v 150.250000 260.240997 -1800.000000
v 150.250000 260.240997 1800.000000
v 126.997002 272.345001 -1800.000000
v 126.997002 272.345001 1800.000000
v 102.777000 282.377991 -1800.000000
v 102.777000 282.377991 1800.000000
v 77.775101 290.260986 -1800.000000
v 77.775101 290.260986 1800.000000
v 52.181301 295.934998 -1800.000000
v 52.181301 295.934998 1800.000000
v 26.190300 299.356995 -1800.000000
v 26.190300 299.356995 1800.000000
v 0.000000 300.500000 -1800.000000
v 0.000000 300.500000 1800.000000
v -26.190300 299.356995 -1800.000000
v -26.190300 299.356995 1800.000000
v -52.181301 295.934998 -1800.000000
v -52.181301 295.934998 1800.000000
v -77.775101 290.260986 -1800.000000
v -77.775101 290.260986 1800.000000
v -102.777000 282.377991 -1800.000000
v -102.777000 282.377991 1800.000000
v -126.997002 272.345001 -1800.000000
v -126.997002 272.345001 1800.000000
v -150.250000 260.240997 -1800.000000
v -150.250000 260.240997 1800.000000
v -172.360001 246.154999 -1800.000000
v -172.360001 246.154999 1800.000000
v -193.158005 230.195999 -1800.000000
v -193.158005 230.195999 1800.000000
v -212.485992 212.485992 -1800.000000
v -212.485992 212.485992 1800.000000
v -230.195999 193.158005 -1800.000000
v -230.195999 193.158005 1800.000000
v -246.154999 172.360001 -1800.000000
v -246.154999 172.360001 1800.000000
v -260.240997 150.250000 -1800.000000
v -260.240997 150.250000 1800.000000
v -272.345001 126.997002 -1800.000000
v -272.345001 126.997002 1800.000000
v -282.377991 102.777000 -1800.000000
v -282.377991 102.777000 1800.000000
v -290.260986 77.775101 -1800.000000
v -290.260986 77.775101 1800.000000
v -295.934998 52.181301 -1800.000000
v -295.934998 52.181301 1800.000000
v -299.356995 26.190300 -1800.000000
v -299.356995 26.190300 1800.000000
# 288 vertices, 0 vertices normals

f 2 4 3 1
f 4 6 5 3
f 6 8 7 5
f 8 10 9 7
f 10 12 11 9
f 12 14 13 11
f 14 16 15 13
f 16 18 17 15
f 18 20 19 17
f 20 22 21 19
f 22 24 23 21
f 24 26 25 23
f 26 28 27 25
f 28 30 29 27
f 30 32 31 29
f 32 34 33 31
f 34 36 35 33
f 36 38 37 35
f 38 40 39 37
f 40 42 41 39
f 42 44 43 41
f 44 46 45 43
f 46 48 47 45
f 48 50 49 47
f 50 52 51 49
f 52 54 53 51
f 54 56 55 53
f 56 58 57 55
f 58 60 59 57
f 60 62 61 59
f 62 64 63 61
f 64 66 65 63
f 66 68 67 65
f 68 70 69 67
f 70 72 71 69
f 72 74 73 71
f 74 76 75 73
f 76 78 77 75
f 78 80 79 77
f 80 82 81 79
f 82 84 83 81
f 84 86 85 83
f 86 88 87 85
f 88 90 89 87
f 90 92 91 89
f 92 94 93 91
f 94 96 95 93
f 96 98 97 95
f 98 100 99 97
f 100 102 101 99
f 102 104 103 101
f 104 106 105 103
f 106 108 107 105
f 108 110 109 107
f 110 112 111 109
f 112 114 113 111
f 114 116 115 113
f 116 118 117 115
f 118 120 119 117
f 120 122 121 119
f 122 124 123 121
f 124 126 125 123
f 126 128 127 125
f 128 130 129 127
f 130 132 131 129
f 132 134 133 131
f 134 136 135 133
f 136 138 137 135
f 138 140 139 137
f 140 142 141 139
f 142 144 143 141
f 144 2 1 143
f 146 148 147 145
f 148 150 149 147
f 150 152 151 149
f 152 154 153 151
f 154 156 155 153
f 156 158 157 155
f 158 160 159 157
f 160 162 161 159
f 162 164 163 161
f 164 166 165 163
f 166 168 167 165
f 168 170 169 167
f 170 172 171 169
f 172 174 173 171
f 174 176 175 173
f 176 178 177 175
f 178 180 179 177
f 180 182 181 179
f 182 184 183 181
f 184 186 185 183
f 186 188 187 185
f 188 190 189 187
f 190 192 191 189
f 192 194 193 191
f 194 196 195 193
f 196 198 197 195
f 198 200 199 197
f 200 202 201 199
f 202 204 203 201
f 204 206 205 203
f 206 208 207 205
f 208 210 209 207
f 210 212 211 209
f 212 214 213 211
f 214 216 215 213
f 216 218 217 215
f 218 220 219 217
f 220 222 221 219
f 222 224 223 221
f 224 226 225 223
f 226 228 227 225
f 228 230 229 227
f 230 232 231 229
f 232 234 233 231
f 234 236 235 233
f 236 238 237 235
f 238 240 239 237
f 240 242 241 239
f 242 244 243 241
f 244 246 245 243
f 246 248 247 245
f 248 250 249 247
f 250 252 251 249
f 252 254 253 251
f 254 256 255 253
f 256 258 257 255
f 258 260 259 257
f 260 262 261 259
f 262 264 263 261
f 264 266 265 263
f 266 268 267 265
f 268 270 269 267
f 270 272 271 269
f 272 274 273 271
f 274 276 275 273
f 276 278 277 275
f 278 280 279 277
f 280 282 281 279
f 282 284 283 281
f 284 286 285 283
f 286 288 287 285
f 288 146 145 287
f 3 147 145 1
f 5 149 147 3
f 7 151 149 5
f 9 153 151 7
f 11 155 153 9
f 13 157 155 11
f 15 159 157 13
f 17 161 159 15
f 19 163 161 17
f 21 165 163 19
f 23 167 165 21
f 25 169 167 23
f 27 171 169 25
f 29 173 171 27
f 31 175 173 29
f 33 177 175 31
f 35 179 177 33
f 37 181 179 35
f 39 183 181 37
f 41 185 183 39
f 43 187 185 41
f 45 189 187 43
f 47 191 189 45
f 49 193 191 47
f 51 195 193 49
f 53 197 195 51
f 55 199 197 53
f 57 201 199 55
f 59 203 201 57
f 61 205 203 59
f 63 207 205 61
f 65 209 207 63
f 67 211 209 65
f 69 213 211 67
f 71 215 213 69
f 73 217 215 71
f 75 219 217 73
f 77 221 219 75
f 79 223 221 77
f 81 225 223 79
f 83 227 225 81
f 85 229 227 83
f 87 231 229 85
f 89 233 231 87
f 91 235 233 89
f 93 237 235 91
f 95 239 237 93
f 97 241 239 95
f 99 243 241 97
f 101 245 243 99
f 103 247 245 101
f 105 249 247 103
f 107 251 249 105
f 109 253 251 107
f 111 255 253 109
f 113 257 255 111
f 115 259 257 113
f 117 261 259 115
f 119 263 261 117
f 121 265 263 119
f 123 267 265 121
f 125 269 267 123
f 127 271 269 125
f 129 273 271 127
f 131 275 273 129
f 133 277 275 131
f 135 279 277 133
f 137 281 279 135
f 139 283 281 137
f 141 285 283 139
f 143 287 285 141
f 1 145 287 143
f 4 148 146 2
f 6 150 148 4
f 8 152 150 6
f 10 154 152 8
f 12 156 154 10
f 14 158 156 12
f 16 160 158 14
f 18 162 160 16
f 20 164 162 18
f 22 166 164 20
f 24 168 166 22
f 26 170 168 24
f 28 172 170 26
f 30 174 172 28
f 32 176 174 30
f 34 178 176 32
f 36 180 178 34
f 38 182 180 36
f 40 184 182 38
f 42 186 184 40
f 44 188 186 42
f 46 190 188 44
f 48 192 190 46
f 50 194 192 48
f 52 196 194 50
f 54 198 196 52
f 56 200 198 54
f 58 202 200 56
f 60 204 202 58
f 62 206 204 60
f 64 208 206 62
f 66 210 208 64
f 68 212 210 66
f 70 214 212 68
f 72 216 214 70
f 74 218 216 72
f 76 220 218 74
f 78 222 220 76
f 80 224 222 78
f 82 226 224 80
f 84 228 226 82
f 86 230 228 84
f 88 232 230 86
f 90 234 232 88
f 92 236 234 90
f 94 238 236 92
f 96 240 238 94
f 98 242 240 96
f 100 244 242 98
f 102 246 244 100
f 104 248 246 102
f 106 250 248 104
f 108 252 250 106
f 110 254 252 108
f 112 256 254 110
f 114 258 256 112
f 116 260 258 114
f 118 262 260 116
f 120 264 262 118
f 122 266 264 120
f 124 268 266 122
f 126 270 268 124
f 128 272 270 126
f 130 274 272 128
f 132 276 274 130
f 134 278 276 132
f 136 280 278 134
f 138 282 280 136
f 140 284 282 138
f 142 286 284 140
f 144 288 286 142
f 2 146 288 144
# 288 faces, 0 coords texture

# End of File
